<svg width="30" height="37" viewBox="0 0 30 37" fill="none" xmlns="http://www.w3.org/2000/svg">
<path d="M7.42742 35.7995C7.43224 35.7956 7.43185 35.7881 7.42666 35.7846C6.70268 35.3007 6.06083 34.7038 5.52559 34.0164C4.934 33.3035 4.38587 32.5556 3.88419 31.7766C2.7069 30.0498 1.78365 28.1625 1.14275 26.1726C0.372836 23.8612 0 21.6457 0 19.4787C0 17.0587 0.522894 14.946 1.54559 13.1709C2.30371 11.7834 3.41833 10.6239 4.77414 9.81239C6.08808 8.99527 7.59781 8.5481 9.14429 8.51799C9.68565 8.51799 10.2686 8.59658 10.8873 8.74682C11.3317 8.8728 11.873 9.07158 12.5344 9.3189C13.3759 9.64365 13.8388 9.84243 13.9958 9.89097C14.4886 10.0713 14.903 10.1499 15.2285 10.1499C15.4756 10.1499 15.8242 10.0713 16.2201 9.95107C16.4429 9.87248 16.863 9.7338 17.4644 9.47607C18.06 9.2588 18.5287 9.07273 18.9015 8.93405C19.4729 8.76531 20.0258 8.60929 20.5187 8.5307C21.103 8.43847 21.696 8.41404 22.2859 8.4579C23.3081 8.52479 24.315 8.74169 25.2743 9.10163C26.3985 9.55464 27.3685 10.1899 28.1754 11.0298C28.7071 11.5832 28.5014 12.452 27.9373 12.9721C27.1865 13.6384 26.5471 14.4207 26.0431 15.2893C25.3843 16.4763 25.0428 17.8134 25.0516 19.1713C25.0758 20.839 25.5029 22.3079 26.3444 23.578C26.963 24.5194 27.767 25.3244 28.7072 25.9438C29.3911 26.4052 29.8119 27.2625 29.5064 28.0288C29.4658 28.1307 29.4242 28.2323 29.3813 28.3338C28.8499 29.5778 28.2058 30.7704 27.4571 31.8968C26.7899 32.8665 26.267 33.5888 25.8699 34.0695C25.2512 34.8034 24.6556 35.3639 24.0543 35.7546C23.3928 36.1937 22.6114 36.4283 21.8172 36.4283C21.2794 36.449 20.7417 36.3839 20.2243 36.2353C19.7799 36.0851 19.3401 35.9221 18.9073 35.7361C18.4573 35.5291 17.9932 35.3542 17.5187 35.2125C16.3456 34.9109 15.1156 34.9089 13.9415 35.2068C13.4602 35.3454 12.9973 35.5072 12.5402 35.706C11.8973 35.9765 11.4702 36.1579 11.2232 36.2353C10.7303 36.3798 10.2189 36.47 9.70181 36.5C8.90585 36.5 8.1636 36.2734 7.42844 35.8146C7.42306 35.8112 7.42252 35.8036 7.42742 35.7995ZM17.9722 7.34321C17.9762 7.34336 17.9773 7.3488 17.9737 7.35059C17.1199 7.77605 16.2975 8.00109 15.4846 8.02821C15.1725 8.03863 14.9127 7.79906 14.8979 7.48706C14.8586 6.65476 15.0245 5.79794 15.3659 4.8752C15.7187 3.92644 16.24 3.04939 16.9046 2.28641C17.6064 1.48322 18.458 0.824876 19.4117 0.34829C20.9408 -0.439809 22.5246 0.876071 21.9963 2.51318C21.9774 2.57181 21.9577 2.63067 21.9373 2.68975C21.5816 3.67359 21.0613 4.58966 20.3986 5.39874C19.7255 6.19923 18.9001 6.85768 17.9705 7.33584C17.967 7.33767 17.9682 7.34305 17.9722 7.34321Z" fill="#333333"/>
</svg>
