<svg width="31" height="31" viewBox="0 0 31 31" fill="none" xmlns="http://www.w3.org/2000/svg">
<path d="M16.7916 3.875C16.7916 3.16163 16.2133 2.58333 15.4999 2.58333C14.7865 2.58333 14.2083 3.16163 14.2083 3.875V18.84L8.66326 13.295C8.15884 12.7906 7.341 12.7906 6.83657 13.295C6.33215 13.7994 6.33215 14.6173 6.83657 15.1217L14.5866 22.8717C15.091 23.3761 15.9088 23.3761 16.4133 22.8717L24.1633 15.1217C24.6677 14.6173 24.6677 13.7994 24.1633 13.295C23.6588 12.7906 22.841 12.7906 22.3366 13.295L16.7916 18.84V3.875Z" fill="#54ACFF"/>
<path d="M2.58325 27.125C2.58325 26.4116 3.16155 25.8333 3.87492 25.8333H27.1249C27.8383 25.8333 28.4166 26.4116 28.4166 27.125C28.4166 27.8384 27.8383 28.4167 27.1249 28.4167H3.87492C3.16155 28.4167 2.58325 27.8384 2.58325 27.125Z" fill="#54ACFF"/>
</svg>
