<svg width="31" height="31" viewBox="0 0 31 31" fill="none" xmlns="http://www.w3.org/2000/svg">
<path d="M25.8334 16.1458V8.78334C25.8334 6.61314 25.8334 5.52804 25.4111 4.69913C25.0396 3.97 24.4468 3.3772 23.7176 3.00569C22.8887 2.58334 21.8036 2.58334 19.6334 2.58334H11.3667C9.19654 2.58334 8.11144 2.58334 7.28253 3.00569C6.55341 3.3772 5.96061 3.97 5.5891 4.69913C5.16675 5.52804 5.16675 6.61314 5.16675 8.78334V22.2167C5.16675 24.3869 5.16675 25.472 5.5891 26.3009C5.96061 27.03 6.55341 27.6228 7.28253 27.9943C8.11144 28.4167 9.19654 28.4167 11.3667 28.4167H15.5001M18.0834 14.2083H10.3334M12.9167 19.375H10.3334M20.6667 9.04168H10.3334M18.7292 24.5417L21.3126 27.125L27.1251 21.3125" stroke="#54ACFF" stroke-width="2" stroke-linecap="round" stroke-linejoin="round"/>
</svg>
