<svg width="232" height="60" viewBox="0 0 232 60" fill="none" xmlns="http://www.w3.org/2000/svg">
<path d="M0 30C0 20.9446 0 16.4169 1.47937 12.8454C3.45186 8.08341 7.23526 4.3 11.9973 2.32751C15.5688 0.848145 20.0965 0.848145 29.1518 0.848145C38.2072 0.848145 42.7349 0.848145 46.3064 2.32751C51.0684 4.3 54.8518 8.08341 56.8243 12.8454C58.3037 16.4169 58.3037 20.9446 58.3037 30C58.3037 39.0553 58.3037 43.583 56.8243 47.1545C54.8518 51.9165 51.0684 55.7 46.3064 57.6724C42.7349 59.1518 38.2072 59.1518 29.1518 59.1518C20.0965 59.1518 15.5688 59.1518 11.9973 57.6724C7.23526 55.7 3.45186 51.9165 1.47937 47.1545C0 43.583 0 39.0553 0 30Z" fill="#54ACFF"/>
<path d="M7.2262 34.1867L22.7075 27.7728L32.9575 41.0814L35.598 31.2268L25.3347 17.968L9.86671 24.3321L7.2262 34.1867Z" fill="#0D3B66"/>
<path d="M51.077 24.8216L35.5957 31.2355L25.3457 17.9269L22.7052 27.7815L32.9685 41.0403L48.4365 34.6762L51.077 24.8216Z" fill="white"/>
<path d="M68.021 43.0642L71.6685 16.9356H77.1046L74.1235 38.3295H85.1712L84.5048 43.0642H68.021Z" fill="#0D3B66"/>
<path d="M92.2864 43.4851C91.0004 43.4851 89.8781 43.2863 88.9195 42.8889C87.9608 42.4914 87.2126 41.9068 86.6749 41.1353C86.1605 40.3403 85.9033 39.3817 85.9033 38.2594C85.9033 36.9968 86.2189 35.9329 86.8502 35.0678C87.5049 34.1793 88.3817 33.4662 89.4806 32.9284C90.6029 32.3907 91.8655 32.0166 93.2684 31.8061L99.3008 30.8592L98.915 34.7171L94.0049 35.629C93.2801 35.7693 92.6488 36.0265 92.111 36.4006C91.5966 36.7513 91.3394 37.2657 91.3394 37.9437C91.3394 38.5282 91.5499 38.9608 91.9707 39.2414C92.3916 39.4986 92.9294 39.6272 93.584 39.6272C94.4492 39.6272 95.209 39.4284 95.8637 39.0309C96.5418 38.6335 97.0912 38.1074 97.5121 37.4527C97.9563 36.798 98.2252 36.0849 98.3188 35.3133L98.9851 30.4383C99.0553 29.9006 98.9617 29.4446 98.7045 29.0705C98.4474 28.6964 98.0849 28.4042 97.6173 28.1937C97.1497 27.9833 96.6353 27.8781 96.0742 27.8781C95.0688 27.8781 94.1686 28.1586 93.3736 28.7198C92.5787 29.2576 91.9824 29.9473 91.5849 30.789L87.5166 28.5795C88.0076 27.504 88.6974 26.5921 89.5858 25.8439C90.4743 25.0957 91.5031 24.5229 92.6722 24.1254C93.8412 23.7045 95.0805 23.4941 96.3898 23.4941C98.0031 23.4941 99.4294 23.798 100.669 24.406C101.931 25.0139 102.89 25.8556 103.544 26.9311C104.223 28.0067 104.456 29.2576 104.246 30.6838L102.527 43.0642H97.5822L98.0031 39.9779L99.406 39.8727C98.7513 40.7144 98.0616 41.4041 97.3367 41.9419C96.6119 42.4797 95.8287 42.8655 94.9869 43.0993C94.1686 43.3565 93.2684 43.4851 92.2864 43.4851Z" fill="#0D3B66"/>
<path d="M105.509 43.0642L108.174 23.9149H113.084L112.593 27.7027L112.383 26.7207C112.991 25.575 113.797 24.7567 114.803 24.2657C115.832 23.7513 116.989 23.4941 118.275 23.4941C119.748 23.4941 120.999 23.8448 122.028 24.5462C123.056 25.2243 123.805 26.1479 124.272 27.3169C124.763 28.486 124.904 29.7953 124.693 31.245L123.045 43.0642H117.784L119.327 31.8763C119.491 30.7774 119.292 29.9006 118.731 29.2459C118.17 28.5678 117.375 28.2288 116.346 28.2288C115.668 28.2288 115.037 28.3808 114.452 28.6847C113.891 28.9887 113.423 29.4095 113.049 29.9473C112.675 30.4851 112.43 31.1281 112.313 31.8763L110.77 43.0642H105.509Z" fill="#0D3B66"/>
<path d="M135.868 43.4851C134.021 43.4851 132.361 43.0759 130.888 42.2576C129.438 41.4392 128.293 40.3169 127.451 38.8907C126.633 37.4644 126.223 35.8511 126.223 34.0507C126.223 32.5777 126.504 31.1982 127.065 29.9122C127.626 28.6263 128.398 27.504 129.38 26.5453C130.362 25.5867 131.496 24.8385 132.782 24.3007C134.091 23.763 135.494 23.4941 136.99 23.4941C138.44 23.4941 139.761 23.7513 140.954 24.2657C142.146 24.7567 143.151 25.4464 143.97 26.3349C144.788 27.2234 145.349 28.2639 145.653 29.4563L140.989 31.2801C140.731 30.3214 140.24 29.5732 139.516 29.0354C138.791 28.4977 137.926 28.2288 136.92 28.2288C135.868 28.2288 134.945 28.4977 134.15 29.0354C133.378 29.5732 132.77 30.2863 132.326 31.1748C131.905 32.0633 131.695 33.022 131.695 34.0507C131.695 34.986 131.87 35.8043 132.221 36.5058C132.571 37.2072 133.062 37.7567 133.694 38.1541C134.348 38.5516 135.097 38.7504 135.938 38.7504C137.037 38.7504 137.996 38.4581 138.814 37.8736C139.633 37.289 140.24 36.5175 140.638 35.5588L145.092 37.6982C144.648 38.8205 143.97 39.8259 143.058 40.7144C142.169 41.5795 141.106 42.2576 139.866 42.7486C138.627 43.2396 137.294 43.4851 135.868 43.4851Z" fill="#0D3B66"/>
<path d="M156.633 43.4851C154.693 43.4851 153.009 43.0759 151.583 42.2576C150.157 41.4158 149.058 40.2818 148.286 38.8556C147.538 37.4293 147.164 35.8511 147.164 34.1209C147.164 32.6479 147.421 31.2801 147.935 30.0175C148.45 28.7315 149.175 27.5975 150.11 26.6155C151.045 25.6335 152.132 24.8736 153.372 24.3358C154.611 23.7747 155.955 23.4941 157.405 23.4941C159.345 23.4941 160.982 23.8799 162.315 24.6515C163.648 25.3997 164.653 26.4284 165.331 27.7378C166.033 29.0471 166.383 30.5319 166.383 32.1919C166.383 32.6362 166.348 33.0804 166.278 33.5247C166.208 33.9689 166.114 34.4482 165.997 34.9626H151.618L151.899 31.1047H163.262L160.631 32.8583C160.935 31.8763 160.994 30.9995 160.807 30.2279C160.62 29.4563 160.222 28.8484 159.614 28.4042C159.03 27.9365 158.282 27.7027 157.37 27.7027C156.177 27.7027 155.23 28.0067 154.529 28.6146C153.827 29.2225 153.313 30.0292 152.986 31.0345C152.682 32.0399 152.53 33.1506 152.53 34.3664C152.53 35.325 152.693 36.155 153.021 36.8565C153.348 37.5345 153.827 38.0489 154.459 38.3997C155.09 38.7504 155.85 38.9257 156.738 38.9257C157.697 38.9257 158.539 38.727 159.264 38.3295C159.988 37.932 160.55 37.4059 160.947 36.7513L165.086 38.8907C164.641 39.8259 163.998 40.6443 163.157 41.3457C162.315 42.0238 161.333 42.5498 160.211 42.9239C159.112 43.298 157.919 43.4851 156.633 43.4851Z" fill="#0D3B66"/>
<path d="M178.564 43.4851C177.138 43.4851 175.84 43.2396 174.671 42.7486C173.525 42.2342 172.625 41.5094 171.97 40.5741L172.602 39.557L172.146 43.0642H167.165L170.883 16.5148H176.179L174.671 27.5624L173.303 26.4401C174.005 25.4815 174.905 24.7567 176.004 24.2657C177.126 23.7513 178.365 23.4941 179.721 23.4941C181.498 23.4941 183.076 23.9149 184.456 24.7567C185.835 25.575 186.923 26.6973 187.718 28.1236C188.536 29.5265 188.945 31.1164 188.945 32.8934C188.945 34.343 188.676 35.7108 188.139 36.9968C187.601 38.2827 186.853 39.4167 185.894 40.3988C184.959 41.3574 183.86 42.1173 182.597 42.6784C181.358 43.2162 180.014 43.4851 178.564 43.4851ZM178.003 38.7504C179.078 38.7504 180.025 38.4932 180.844 37.9788C181.662 37.4644 182.305 36.763 182.773 35.8745C183.24 34.986 183.474 33.9923 183.474 32.8934C183.474 31.9815 183.287 31.1748 182.913 30.4734C182.539 29.772 182.013 29.2225 181.335 28.825C180.68 28.4275 179.897 28.2288 178.985 28.2288C177.933 28.2288 176.997 28.4977 176.179 29.0354C175.384 29.5498 174.764 30.2513 174.32 31.1398C173.876 32.0283 173.654 33.022 173.654 34.1209C173.654 35.0327 173.829 35.8394 174.18 36.5408C174.554 37.2423 175.068 37.7917 175.723 38.1892C176.378 38.5633 177.138 38.7504 178.003 38.7504Z" fill="#0D3B66"/>
<path d="M200.199 43.4851C198.375 43.4851 196.727 43.0876 195.254 42.2926C193.781 41.4743 192.612 40.352 191.747 38.9257C190.881 37.4995 190.449 35.8745 190.449 34.0507C190.449 32.5777 190.729 31.1982 191.291 29.9122C191.852 28.6263 192.635 27.504 193.64 26.5453C194.646 25.5867 195.803 24.8385 197.113 24.3007C198.422 23.763 199.825 23.4941 201.321 23.4941C203.145 23.4941 204.793 23.9033 206.266 24.7216C207.739 25.5166 208.897 26.6272 209.738 28.0534C210.604 29.4563 211.036 31.0813 211.036 32.9284C211.036 34.4015 210.756 35.7809 210.194 37.0669C209.633 38.3295 208.85 39.4518 207.845 40.4338C206.839 41.3925 205.682 42.1407 204.372 42.6784C203.063 43.2162 201.672 43.4851 200.199 43.4851ZM200.269 38.7504C201.321 38.7504 202.245 38.4932 203.04 37.9788C203.835 37.441 204.454 36.7279 204.899 35.8394C205.343 34.9509 205.565 33.9572 205.565 32.8583C205.565 31.9464 205.39 31.1515 205.039 30.4734C204.688 29.772 204.185 29.2225 203.531 28.825C202.899 28.4275 202.14 28.2288 201.251 28.2288C200.199 28.2288 199.264 28.4977 198.445 29.0354C197.65 29.5498 197.031 30.2513 196.586 31.1398C196.142 32.0283 195.92 33.022 195.92 34.1209C195.92 35.0327 196.095 35.8394 196.446 36.5408C196.797 37.2189 197.3 37.7567 197.954 38.1541C198.609 38.5516 199.381 38.7504 200.269 38.7504Z" fill="#0D3B66"/>
<path d="M209.729 43.0642L217.866 33.3142L212.57 23.9149H218.287L222.32 31.3502H219.655L225.722 23.9149H232L223.934 33.4545L229.264 43.0642H223.653L219.55 35.629H221.934L215.972 43.0642H209.729Z" fill="#0D3B66"/>
</svg>
