<svg width="35" height="42" viewBox="0 0 35 42" fill="none" xmlns="http://www.w3.org/2000/svg">
<path d="M0 1.38333V40.6061C0.000262771 40.6912 0.0256434 40.7744 0.0729594 40.8451C0.120275 40.9158 0.18742 40.971 0.265974 41.0037C0.344529 41.0364 0.430995 41.0452 0.514531 41.029C0.598068 41.0128 0.674955 40.9723 0.735552 40.9125L21.1584 20.9957L0.735552 1.07693C0.674955 1.01719 0.598068 0.976663 0.514531 0.96044C0.430995 0.944218 0.344529 0.953019 0.265974 0.985741C0.18742 1.01846 0.120275 1.07365 0.0729594 1.14438C0.0256434 1.21511 0.000262771 1.29823 0 1.38333Z" fill="#3BCCFF"/>
<path d="M26.8078 14.997L1.20024 0.888757L1.18427 0.879774C0.743143 0.640246 0.323968 1.23707 0.685257 1.58439L20.7588 20.7786L26.8078 14.997Z" fill="#48FF48"/>
<path d="M0.138087 40.4156C-0.225198 40.7629 0.193977 41.3597 0.637105 41.1202L0.653073 41.1112L26.2587 27.003L20.2096 21.2194L0.138087 40.4156Z" fill="#FF3333"/>
<path d="M33.5412 18.6022L26.3903 14.6639L19.6665 21.0973L26.3903 27.5276L33.5412 23.5924C35.4864 22.5175 35.4864 19.6771 33.5412 18.6022Z" fill="#FFD400"/>
</svg>
