<svg width="31" height="31" viewBox="0 0 31 31" fill="none" xmlns="http://www.w3.org/2000/svg">
<path d="M19.375 10.3333H11.1083C10.3849 10.3333 10.0232 10.3333 9.74693 10.1925C9.50389 10.0687 9.30629 9.87111 9.18245 9.62807C9.04167 9.35177 9.04167 8.99007 9.04167 8.26667V3.875M21.9583 27.125V18.8583C21.9583 18.1349 21.9583 17.7732 21.8175 17.4969C21.6937 17.2539 21.4961 17.0563 21.2531 16.9324C20.9768 16.7917 20.6151 16.7917 19.8917 16.7917H11.1083C10.3849 16.7917 10.0232 16.7917 9.74693 16.9324C9.50389 17.0563 9.30629 17.2539 9.18245 17.4969C9.04167 17.7732 9.04167 18.1349 9.04167 18.8583V27.125M27.125 12.0454V20.925C27.125 23.0952 27.125 24.1803 26.7026 25.0092C26.3311 25.7383 25.7383 26.3311 25.0092 26.7026C24.1803 27.125 23.0952 27.125 20.925 27.125H10.075C7.9048 27.125 6.81969 27.125 5.99079 26.7026C5.26166 26.3311 4.66886 25.7383 4.29735 25.0092C3.875 24.1803 3.875 23.0952 3.875 20.925V10.075C3.875 7.9048 3.875 6.81969 4.29735 5.99079C4.66886 5.26166 5.26166 4.66886 5.99079 4.29735C6.81969 3.875 7.9048 3.875 10.075 3.875H18.9546C19.5864 3.875 19.9024 3.875 20.1997 3.94638C20.4633 4.00966 20.7153 4.11404 20.9464 4.25568C21.2071 4.41544 21.4305 4.63883 21.8773 5.08563L25.9144 9.12271C26.3612 9.5695 26.5846 9.7929 26.7443 10.0536C26.886 10.2847 26.9903 10.5367 27.0536 10.8003C27.125 11.0976 27.125 11.4136 27.125 12.0454Z" stroke="#54ACFF" stroke-width="2" stroke-linecap="round" stroke-linejoin="round"/>
</svg>
