<svg width="25" height="25" viewBox="0 0 29 30" fill="none" xmlns="http://www.w3.org/2000/svg">
<path fill-rule="evenodd" clip-rule="evenodd" d="M14.5001 0.791687C6.65304 0.791687 0.291748 7.15297 0.291748 15C0.291748 22.8471 6.65304 29.2084 14.5001 29.2084C22.3471 29.2084 28.7084 22.8471 28.7084 15C28.7084 7.15297 22.3471 0.791687 14.5001 0.791687ZM21.2259 12.0384C21.7304 11.5339 21.7304 10.7161 21.2259 10.2117C20.7215 9.70725 19.9037 9.70725 19.3992 10.2117L12.5626 17.0483L9.60093 14.0867C9.0965 13.5822 8.27866 13.5822 7.77424 14.0867C7.26981 14.5911 7.26981 15.4089 7.77424 15.9134L11.6492 19.7884C12.1537 20.2928 12.9715 20.2928 13.4759 19.7884L21.2259 12.0384Z" fill="#16CB3E"/>
</svg>
